<svg width="129" height="14" viewBox="0 0 129 14" fill="none" xmlns="http://www.w3.org/2000/svg">
<path d="M3.83249 3.64999H0.703491V11H2.72999V8.97349H3.83249C5.39699 8.97349 6.56249 7.84999 6.56249 6.30649C6.56249 4.77349 5.39699 3.64999 3.83249 3.64999ZM3.59099 7.20949H2.72999V5.42449H3.59099C4.12649 5.42449 4.47299 5.79199 4.47299 6.31699C4.47299 6.84199 4.12649 7.20949 3.59099 7.20949Z" fill="#727272"/>
<path d="M11.1356 11.189C13.4981 11.189 15.1781 9.58249 15.1781 7.33549C15.1781 5.07799 13.4981 3.47149 11.1356 3.47149C8.77307 3.47149 7.09307 5.08849 7.09307 7.33549C7.09307 9.57199 8.77307 11.189 11.1356 11.189ZM11.1356 9.30949C10.0226 9.30949 9.19307 8.46949 9.19307 7.33549C9.19307 6.19099 10.0226 5.35099 11.1356 5.35099C12.2591 5.35099 13.0676 6.18049 13.0676 7.33549C13.0676 8.47999 12.2591 9.30949 11.1356 9.30949Z" fill="#727272"/>
<path d="M24.0671 3.64999L22.9016 7.89199L21.1166 3.69199H20.4236L18.6701 7.89199L17.4731 3.64999H15.2996L17.5991 11H19.3841L20.7701 7.46149L22.1771 11H23.9621L26.2301 3.64999H24.0671Z" fill="#727272"/>
<path d="M29.0105 9.24649V8.14399H31.4255V6.48499H29.0105V5.40349H31.6985V3.64999H26.9945V11H31.793V9.24649H29.0105Z" fill="#727272"/>
<path d="M36.9105 11H39.168L37.7085 8.33299C38.433 7.90249 38.874 7.15699 38.874 6.25399C38.874 4.72099 37.719 3.64999 36.144 3.64999H32.952V11H34.9785V8.75299H35.7135L36.9105 11ZM34.9785 5.45599H35.9025C36.4695 5.45599 36.795 5.79199 36.795 6.25399C36.795 6.70549 36.4695 7.05199 35.9025 7.05199H34.9785V5.45599Z" fill="#727272"/>
<path d="M42.0637 9.24649V8.14399H44.4787V6.48499H42.0637V5.40349H44.7517V3.64999H40.0477V11H44.8462V9.24649H42.0637Z" fill="#727272"/>
<path d="M48.9767 3.64999H46.0052V11H48.9767C51.2027 11 52.7777 9.46699 52.7777 7.32499C52.7777 5.17249 51.2027 3.64999 48.9767 3.64999ZM48.8822 9.15199H48.0422V5.50849H48.8822C49.9742 5.50849 50.6987 6.23299 50.6987 7.32499C50.6987 8.40649 49.9742 9.15199 48.8822 9.15199Z" fill="#727272"/>
<path d="M60.7568 7.12549C61.3133 6.77899 61.6808 6.19099 61.6808 5.53999C61.6808 4.44799 60.7253 3.66049 59.4233 3.66049H56.1053V11.0105H59.4968C60.8513 11.0105 61.8803 10.1075 61.8803 8.91049C61.8803 8.11249 61.4498 7.45099 60.7568 7.12549ZM59.7593 5.87599C59.7593 6.25399 59.4968 6.51649 59.0768 6.51649H58.0478V5.23549H59.0768C59.4968 5.23549 59.7593 5.48749 59.7593 5.87599ZM59.1503 9.34099H58.0478V8.00749H59.1503C59.5913 8.00749 59.8748 8.28049 59.8748 8.66899C59.8748 9.06799 59.5913 9.34099 59.1503 9.34099Z" fill="#727272"/>
<path d="M69.1173 3.64999H66.8808L65.5368 6.30649L64.1928 3.64999H61.9458L64.4973 8.12299V11H66.5553V8.13349L69.1173 3.64999Z" fill="#727272"/>
<path d="M78.002 6.76799V8.96399H81.134C80.738 9.93599 79.604 10.584 78.272 10.584C76.364 10.584 75.122 9.21599 75.122 7.21799C75.122 5.20199 76.382 3.83399 78.272 3.83399C79.55 3.83399 80.684 4.51799 81.134 5.57999H84.788C84.248 2.66399 81.548 0.593994 78.236 0.593994C74.366 0.593994 71.558 3.38399 71.558 7.21799C71.558 11.052 74.42 13.824 78.272 13.824C82.214 13.824 84.914 10.89 84.914 6.76799H78.002Z" fill="#727272"/>
<path d="M86.6552 13.5H90.1832V0.899993H86.6552V13.5Z" fill="#727272"/>
<path d="M97.9782 0.899993H92.6142V13.5H96.0882V10.026H97.9782C100.66 10.026 102.658 8.09999 102.658 5.45399C102.658 2.82599 100.66 0.899993 97.9782 0.899993ZM97.5642 7.00199H96.0882V3.94199H97.5642C98.4822 3.94199 99.0762 4.57199 99.0762 5.47199C99.0762 6.37199 98.4822 7.00199 97.5642 7.00199Z" fill="#727272"/>
<path d="M111.506 0.899993V5.45399H107.726V0.899993H104.216V13.5H107.726V8.67599H111.506V13.5H114.998V0.899993H111.506Z" fill="#727272"/>
<path d="M128.667 0.899993H124.833L122.529 5.45399L120.225 0.899993H116.373L120.747 8.56799V13.5H124.275V8.58599L128.667 0.899993Z" fill="#727272"/>
</svg>
